<svg width="20" height="20" viewBox="0 0 20 20" fill="none" xmlns="http://www.w3.org/2000/svg">
<path d="M18.3332 6.66733V10.0007M8.5415 4.58399H5.6665C4.26637 4.58399 3.56631 4.58399 3.03153 4.85648C2.56112 5.09616 2.17867 5.47861 1.93899 5.94902C1.6665 6.4838 1.6665 7.18386 1.6665 8.58399L1.6665 9.58399C1.66651 10.3606 1.66651 10.7488 1.79337 11.0551C1.96253 11.4635 2.28699 11.788 2.69536 11.9571C3.00165 12.084 3.38994 12.084 4.16651 12.084V15.6257C4.16651 15.8191 4.16651 15.9159 4.17453 15.9974C4.25247 16.7886 4.87852 17.4147 5.66981 17.4926C5.75129 17.5007 5.84803 17.5007 6.04151 17.5007C6.23498 17.5007 6.33172 17.5007 6.4132 17.4926C7.2045 17.4147 7.83054 16.7886 7.90848 15.9974C7.91651 15.9159 7.91651 15.8191 7.91651 15.6257V12.084H8.54151C10.0135 12.084 11.8142 12.8731 13.2034 13.6304C14.0139 14.0722 14.4191 14.2931 14.6845 14.2606C14.9306 14.2304 15.1167 14.1199 15.2609 13.9183C15.4165 13.7008 15.4165 13.2657 15.4165 12.3954V4.27256C15.4165 3.40232 15.4165 2.9672 15.2609 2.74973C15.1167 2.54808 14.9306 2.43758 14.6845 2.40743C14.4191 2.37493 14.0139 2.59582 13.2034 3.03762C11.8142 3.79492 10.0135 4.58399 8.5415 4.58399Z" stroke="#414651" stroke-width="1.66667" stroke-linecap="round" stroke-linejoin="round"/>
</svg>
