<svg width="20" height="20" viewBox="0 0 20 20" fill="none" xmlns="http://www.w3.org/2000/svg">
<path d="M14.1665 12.0843V9.57964C14.1665 9.43007 14.1665 9.35529 14.1437 9.28927C14.1236 9.23088 14.0907 9.1777 14.0475 9.13358C13.9986 9.08369 13.9318 9.05024 13.798 8.98335L9.99984 7.08428M3.33317 7.91762V13.5898C3.33317 13.8997 3.33317 14.0547 3.38152 14.1904C3.42426 14.3103 3.49392 14.4189 3.58515 14.5077C3.68835 14.6082 3.82923 14.6728 4.11096 14.8019L9.4443 17.2463C9.64866 17.34 9.75084 17.3868 9.85729 17.4053C9.95161 17.4217 10.0481 17.4217 10.1424 17.4053C10.2488 17.3868 10.351 17.34 10.5554 17.2463L15.8887 14.8019C16.1704 14.6728 16.3113 14.6082 16.4145 14.5077C16.5058 14.4189 16.5754 14.3103 16.6182 14.1904C16.6665 14.0547 16.6665 13.8997 16.6665 13.5898V7.91762M1.6665 7.08428L9.70169 3.06669C9.81101 3.01203 9.86567 2.9847 9.923 2.97394C9.97378 2.96442 10.0259 2.96442 10.0767 2.97394C10.134 2.9847 10.1887 3.01203 10.298 3.06669L18.3332 7.08428L10.298 11.1019C10.1887 11.1565 10.134 11.1839 10.0767 11.1946C10.0259 11.2042 9.97378 11.2042 9.923 11.1946C9.86567 11.1839 9.81101 11.1565 9.70169 11.1019L1.6665 7.08428Z" stroke="#414651" stroke-width="1.66667" stroke-linecap="round" stroke-linejoin="round"/>
</svg>
