<svg width="20" height="20" viewBox="0 0 20 20" fill="none" xmlns="http://www.w3.org/2000/svg">
<g clip-path="url(#clip0_84_11875)">
<path d="M1.66699 10.0009L9.70218 14.0185C9.8115 14.0732 9.86616 14.1005 9.92349 14.1113C9.97427 14.1208 10.0264 14.1208 10.0772 14.1113C10.1345 14.1005 10.1891 14.0732 10.2985 14.0185L18.3337 10.0009M1.66699 14.1676L9.70218 18.1852C9.8115 18.2399 9.86616 18.2672 9.92349 18.278C9.97427 18.2875 10.0264 18.2875 10.0772 18.278C10.1345 18.2672 10.1891 18.2399 10.2985 18.1852L18.3337 14.1676M1.66699 5.83428L9.70218 1.81669C9.8115 1.76203 9.86616 1.7347 9.92349 1.72394C9.97427 1.71442 10.0264 1.71442 10.0772 1.72394C10.1345 1.7347 10.1891 1.76203 10.2985 1.81669L18.3337 5.83428L10.2985 9.85188C10.1891 9.90654 10.1345 9.93387 10.0772 9.94462C10.0264 9.95415 9.97427 9.95415 9.92349 9.94462C9.86616 9.93387 9.8115 9.90654 9.70218 9.85188L1.66699 5.83428Z" stroke="#414651" stroke-width="1.66667" stroke-linecap="round" stroke-linejoin="round"/>
</g>
<defs>
<clipPath id="clip0_84_11875">
<rect width="20" height="20" fill="white"/>
</clipPath>
</defs>
</svg>
