<svg width="20" height="20" viewBox="0 0 20 20" fill="none" xmlns="http://www.w3.org/2000/svg">
<g clip-path="url(#clip0_84_12205)">
<path d="M5.07847 9.35668C5.02668 9.02287 4.99981 8.68089 4.99981 8.33268C4.99981 4.65078 8.00421 1.66602 11.7103 1.66602C15.4165 1.66602 18.4209 4.65078 18.4209 8.33268C18.4209 9.16441 18.2675 9.96056 17.9875 10.6948C17.9293 10.8473 17.9002 10.9235 17.887 10.983C17.8739 11.042 17.8689 11.0835 17.8674 11.1439C17.866 11.2048 17.8743 11.272 17.8908 11.4063L18.2263 14.1315C18.2626 14.4265 18.2808 14.574 18.2317 14.6812C18.1887 14.7752 18.1123 14.8498 18.0174 14.8906C17.9091 14.9372 17.762 14.9156 17.4679 14.8725L14.8135 14.4834C14.675 14.4631 14.6056 14.453 14.5425 14.4533C14.4801 14.4537 14.4369 14.4583 14.3758 14.4711C14.314 14.4841 14.2351 14.5137 14.0773 14.5728C13.3412 14.8485 12.5435 14.9993 11.7103 14.9993C11.3618 14.9993 11.0196 14.973 10.6854 14.9221M6.35949 18.3327C8.83023 18.3327 10.8332 16.2807 10.8332 13.7493C10.8332 11.218 8.83023 9.16602 6.35949 9.16602C3.88874 9.16602 1.8858 11.218 1.8858 13.7493C1.8858 14.2582 1.96673 14.7476 2.11613 15.205C2.17928 15.3983 2.21085 15.4949 2.22122 15.561C2.23204 15.6299 2.23393 15.6686 2.2299 15.7383C2.22604 15.805 2.20935 15.8804 2.17596 16.0313L1.6665 18.3327L4.16217 17.9918C4.29839 17.9732 4.3665 17.9639 4.42598 17.9643C4.4886 17.9648 4.52184 17.9682 4.58326 17.9804C4.64159 17.992 4.7283 18.0226 4.90173 18.0838C5.35866 18.2451 5.84909 18.3327 6.35949 18.3327Z" stroke="#414651" stroke-width="1.66667" stroke-linecap="round" stroke-linejoin="round"/>
</g>
<defs>
<clipPath id="clip0_84_12205">
<rect width="20" height="20" fill="white"/>
</clipPath>
</defs>
</svg>
