<svg width="20" height="20" viewBox="0 0 20 20" fill="none" xmlns="http://www.w3.org/2000/svg">
<path d="M14.7873 2.34472C15.5912 1.51432 16.9196 1.50358 17.7369 2.32087C18.5318 3.11577 18.5466 4.39991 17.7702 5.21291L15.4547 7.63771C15.2732 7.82777 15.1824 7.9228 15.1265 8.0341C15.077 8.13263 15.0475 8.24001 15.0398 8.35C15.0311 8.47426 15.0607 8.60229 15.1197 8.85836L16.5597 15.098C16.6203 15.3608 16.6506 15.4923 16.6409 15.6194C16.6322 15.7319 16.6008 15.8415 16.5485 15.9415C16.4894 16.0545 16.394 16.1499 16.2033 16.3406L15.8943 16.6496C15.3892 17.1547 15.1366 17.4073 14.8781 17.453C14.6524 17.4929 14.4202 17.4381 14.2362 17.3014C14.0254 17.1449 13.9125 16.8061 13.6866 16.1284L12.0118 11.104L9.22402 13.8918C9.05761 14.0582 8.97441 14.1414 8.91875 14.2394C8.86945 14.3262 8.83614 14.4211 8.82041 14.5197C8.80267 14.631 8.81566 14.7479 8.84165 14.9818L8.99474 16.3597C9.02073 16.5935 9.03372 16.7105 9.01597 16.8218C9.00025 16.9204 8.96694 17.0153 8.91764 17.1021C8.86198 17.2001 8.77878 17.2833 8.61237 17.4497L8.44778 17.6143C8.05357 18.0085 7.85646 18.2056 7.63742 18.2627C7.4453 18.3128 7.24161 18.2926 7.06304 18.2058C6.85945 18.1069 6.70482 17.875 6.39557 17.4111L5.08864 15.4507C5.03339 15.3678 5.00576 15.3264 4.97369 15.2888C4.9452 15.2554 4.91412 15.2243 4.88074 15.1958C4.84315 15.1638 4.80171 15.1361 4.71884 15.0809L2.75844 13.7739C2.29456 13.4647 2.06263 13.3101 1.96369 13.1065C1.87692 12.9279 1.85675 12.7242 1.90682 12.5321C1.9639 12.3131 2.16101 12.116 2.55523 11.7217L2.71981 11.5572C2.88622 11.3907 2.96942 11.3075 3.0674 11.2519C3.15421 11.2026 3.24916 11.1693 3.34775 11.1535C3.45903 11.1358 3.57597 11.1488 3.80987 11.1748L5.18769 11.3279C5.42158 11.3539 5.53853 11.3669 5.64981 11.3491C5.74839 11.3334 5.84335 11.3001 5.93015 11.2508C6.02813 11.1951 6.11133 11.1119 6.27774 10.9455L9.06551 8.15773L4.04111 6.48293C3.36342 6.25704 3.02457 6.14409 2.86808 5.93333C2.73143 5.7493 2.67661 5.5171 2.71654 5.29139C2.76226 5.0329 3.01482 4.78033 3.51994 4.27521L3.82891 3.96624C4.01966 3.77549 4.11503 3.68012 4.22802 3.62105C4.32803 3.56876 4.43762 3.53733 4.55014 3.52867C4.67727 3.51887 4.80869 3.5492 5.07153 3.60986L11.2875 5.04431C11.5458 5.10391 11.6749 5.13372 11.7996 5.12485C11.92 5.11629 12.0371 5.08168 12.1428 5.02342C12.2523 4.96308 12.3445 4.86785 12.5288 4.6774L14.7873 2.34472Z" stroke="#414651" stroke-width="1.66667" stroke-linecap="round" stroke-linejoin="round"/>
</svg>
