<svg width="20" height="20" viewBox="0 0 20 20" fill="none" xmlns="http://www.w3.org/2000/svg">
<path d="M12.0835 4.58389L13.3335 5.83389M9.58347 7.08389L10.8335 8.33389M7.08347 9.58389L8.33347 10.8339M4.58347 12.0839L5.83347 13.3339M2.13817 14.6387L5.36203 17.8625C5.52704 18.0275 5.60954 18.11 5.70468 18.1409C5.78836 18.1681 5.87851 18.1681 5.96219 18.1409C6.05733 18.11 6.13983 18.0275 6.30484 17.8625L17.862 6.30533C18.027 6.14032 18.1095 6.05782 18.1405 5.96268C18.1676 5.87899 18.1676 5.78885 18.1405 5.70516C18.1095 5.61003 18.027 5.52752 17.862 5.36252L14.6382 2.13866C14.4732 1.97365 14.3907 1.89115 14.2955 1.86024C14.2118 1.83305 14.1217 1.83305 14.038 1.86024C13.9429 1.89115 13.8604 1.97365 13.6954 2.13866L2.13817 13.6959C1.97316 13.8609 1.89066 13.9434 1.85975 14.0385C1.83256 14.1222 1.83256 14.2123 1.85975 14.296C1.89066 14.3911 1.97316 14.4737 2.13817 14.6387Z" stroke="#414651" stroke-width="1.66667" stroke-linecap="round" stroke-linejoin="round"/>
</svg>
