<svg width="40" height="40" viewBox="0 0 40 40" fill="none" xmlns="http://www.w3.org/2000/svg">
<path d="M10.5632 24.7414C10.7585 23.124 11.4219 22.2185 12.6719 21.2902C14.4605 20.033 16.6947 20.7441 16.6947 20.7441V16.5252C17.2378 16.5113 17.7812 16.5435 18.3184 16.6214V22.0508C18.3184 22.0508 16.0849 21.3396 14.2963 22.5975C13.047 23.5251 12.3823 24.4313 12.1876 26.0487C12.1815 26.9269 12.3464 28.075 13.1053 29.0676C12.9177 28.9714 12.7264 28.8618 12.5315 28.7387C10.8596 27.616 10.5551 25.9317 10.5632 24.7414ZM27.5435 8.72434C26.3131 7.37609 25.8478 6.01485 25.6796 5.05859H27.2274C27.2274 5.05859 26.9188 7.56591 29.1679 10.0316L29.1991 10.0648C28.5929 9.68348 28.037 9.23341 27.5435 8.72434ZM34.9996 12.5467V17.8669C34.9996 17.8669 33.0245 17.7896 31.5628 17.4177C29.5219 16.8977 28.2102 16.1 28.2102 16.1C28.2102 16.1 27.304 15.5312 27.2308 15.4916V26.4777C27.2308 27.0895 27.0632 28.6171 26.5525 29.8913C25.8858 31.558 24.8569 32.6521 24.6676 32.8757C24.6676 32.8757 23.4162 34.3546 21.2085 35.3506C19.2185 36.249 17.4713 36.2262 16.949 36.2489C16.949 36.2489 13.9287 36.3686 11.2109 34.6023C10.6232 34.213 10.0746 33.7721 9.57227 33.2853L9.58583 33.295C12.3043 35.0613 15.3239 34.9417 15.3239 34.9417C15.8469 34.9189 17.5941 34.9417 19.5834 34.0433C21.7891 33.0474 23.0425 31.5684 23.0425 31.5684C23.2297 31.3448 24.2634 30.2508 24.9274 28.5833C25.4368 27.3098 25.6057 25.7815 25.6057 25.1698V14.1849C25.6789 14.2252 26.5844 14.794 26.5844 14.794C26.5844 14.794 27.8968 15.5923 29.9377 16.1117C31.4 16.4836 33.3745 16.5609 33.3745 16.5609V12.392C34.05 12.5435 34.6258 12.5845 34.9996 12.5467Z" fill="#EE1D52"/>
<path d="M33.3751 12.392V16.5596C33.3751 16.5596 31.4007 16.4823 29.9384 16.1104C27.8975 15.5904 26.585 14.7927 26.585 14.7927C26.585 14.7927 25.6796 14.2239 25.6063 14.1836V25.1711C25.6063 25.7828 25.4388 27.3111 24.928 28.5846C24.2613 30.2521 23.2324 31.3461 23.0432 31.5697C23.0432 31.5697 21.7911 33.0487 19.584 34.0446C17.5947 34.943 15.8475 34.9202 15.3245 34.943C15.3245 34.943 12.3049 35.0626 9.58646 33.2963L9.5729 33.2866C9.28589 33.0087 9.01572 32.7152 8.76373 32.4077C7.89624 31.35 7.36448 30.0993 7.23086 29.7424C7.23063 29.7409 7.23063 29.7394 7.23086 29.7378C7.01586 29.1177 6.56413 27.6284 6.62586 26.1859C6.73506 23.6408 7.63036 22.0787 7.86707 21.6874C8.49399 20.6202 9.30937 19.6654 10.2769 18.8654C11.1307 18.1751 12.0985 17.6259 13.1405 17.2403C14.267 16.7875 15.4733 16.5448 16.6946 16.5252V20.7441C16.6946 20.7441 14.4604 20.0356 12.6725 21.2902C11.4225 22.2185 10.7592 23.124 10.5638 24.7414C10.5557 25.9317 10.8602 27.616 12.5308 28.7393C12.7257 28.8629 12.9169 28.9725 13.1046 29.0683C13.3964 29.4476 13.7517 29.7782 14.1559 30.0466C15.7878 31.0796 17.1552 31.1518 18.9037 30.4809C20.0697 30.0323 20.9473 29.0215 21.3543 27.9014C21.61 27.2019 21.6066 26.4979 21.6066 25.7698V5.05859H25.6762C25.8444 6.01485 26.3097 7.37609 27.54 8.72434C28.0336 9.23341 28.5895 9.68348 29.1957 10.0648C29.3747 10.2501 30.2904 11.166 31.4658 11.7283C32.0736 12.019 32.7142 12.2417 33.3751 12.392V12.392Z" fill="black"/>
<path d="M5.61133 28.4453V28.4486L5.71231 28.7222C5.70071 28.6904 5.66318 28.5935 5.61133 28.4453Z" fill="#69C9D0"/>
<path d="M13.141 17.2388C12.099 17.6245 11.1312 18.1737 10.2774 18.864C9.30954 19.6658 8.49436 20.6226 7.86822 21.6918C7.63151 22.0818 6.73621 23.6453 6.62701 26.1903C6.56529 27.6328 7.01701 29.1221 7.23202 29.7423C7.23178 29.7438 7.23178 29.7453 7.23202 29.7468C7.36767 30.1005 7.89739 31.3512 8.76489 32.4121C9.01687 32.7196 9.28704 33.0131 9.57405 33.291C8.65446 32.6814 7.83433 31.9445 7.14045 31.1042C6.28042 30.0556 5.75002 28.8179 5.61165 28.4525C5.61149 28.4499 5.61149 28.4473 5.61165 28.4447V28.4402C5.39597 27.8207 4.94289 26.3307 5.00597 24.8862C5.11517 22.3412 6.01047 20.7791 6.24718 20.3878C6.87313 19.3184 7.68834 18.3616 8.65636 17.56C9.51 16.8694 10.4778 16.3202 11.52 15.9348C12.17 15.6763 12.8472 15.4856 13.5398 15.366C14.5837 15.1913 15.6497 15.1762 16.6985 15.3211V16.5237C15.476 16.5429 14.2686 16.7856 13.141 17.2388Z" fill="#69C9D0"/>
<path d="M25.6797 5.05794H21.6102V25.7698C21.6102 26.4979 21.6102 27.2 21.3579 27.9014C20.9468 29.0208 20.0726 30.0317 18.9073 30.4802C17.1581 31.1537 15.7907 31.0789 14.1595 30.046C13.7545 29.7788 13.3984 29.4493 13.1055 29.0709C14.4952 29.7814 15.7392 29.7691 17.2802 29.1762C18.4447 28.7276 19.3204 27.7168 19.73 26.5967C19.9864 25.8972 19.983 25.1932 19.983 24.4658V3.75H25.6024C25.6024 3.75 25.5393 4.26486 25.6797 5.05794ZM33.3753 11.2388V12.3914C32.7156 12.2408 32.0761 12.0181 31.4694 11.7277C30.2939 11.1653 29.3783 10.2494 29.1992 10.0641C29.407 10.1949 29.6226 10.3138 29.8449 10.4204C31.274 11.1042 32.6814 11.3084 33.3753 11.2388Z" fill="#69C9D0"/>
</svg>
