<svg width="40" height="40" viewBox="0 0 40 40" fill="none" xmlns="http://www.w3.org/2000/svg">
<path fill-rule="evenodd" clip-rule="evenodd" d="M20 38.75C29.665 38.75 37.5 30.915 37.5 21.25C37.5 11.585 29.665 3.75 20 3.75C10.335 3.75 2.5 11.585 2.5 21.25C2.5 24.3886 3.32625 27.3342 4.77309 29.8812L2.5 38.75L11.6436 36.6298C14.1267 37.9818 16.9736 38.75 20 38.75ZM20 36.0577C28.1781 36.0577 34.8077 29.4281 34.8077 21.25C34.8077 13.0719 28.1781 6.44231 20 6.44231C11.8219 6.44231 5.19231 13.0719 5.19231 21.25C5.19231 24.4076 6.18063 27.3343 7.8648 29.7378L6.53846 34.7115L11.5999 33.4462C13.9867 35.0932 16.8807 36.0577 20 36.0577Z" fill="#BFC8D0"/>
<path d="M35 20C35 28.2843 28.2843 35 20 35C16.8402 35 13.9086 34.023 11.4908 32.3546L6.36364 33.6364L7.7072 28.598C6.00116 26.1633 5 23.1986 5 20C5 11.7157 11.7157 5 20 5C28.2843 5 35 11.7157 35 20Z" fill="url(#paint0_linear_84_11795)"/>
<path fill-rule="evenodd" clip-rule="evenodd" d="M20 37.5C29.665 37.5 37.5 29.665 37.5 20C37.5 10.335 29.665 2.5 20 2.5C10.335 2.5 2.5 10.335 2.5 20C2.5 23.1386 3.32625 26.0842 4.77309 28.6312L2.5 37.5L11.6436 35.3798C14.1267 36.7318 16.9736 37.5 20 37.5ZM20 34.8077C28.1781 34.8077 34.8077 28.1781 34.8077 20C34.8077 11.8219 28.1781 5.19231 20 5.19231C11.8219 5.19231 5.19231 11.8219 5.19231 20C5.19231 23.1576 6.18063 26.0843 7.8648 28.4878L6.53846 33.4615L11.5999 32.1962C13.9867 33.8432 16.8807 34.8077 20 34.8077Z" fill="white"/>
<path d="M15.625 11.8747C15.2089 11.039 14.5707 11.113 13.9258 11.113C12.7735 11.113 10.9766 12.4934 10.9766 15.0623C10.9766 17.1677 11.9043 19.4724 15.0305 22.92C18.0476 26.2472 22.0117 27.9684 25.3027 27.9098C28.5938 27.8512 29.2709 25.0192 29.2709 24.0628C29.2709 23.6389 29.0078 23.4274 28.8266 23.3699C27.7051 22.8317 25.6367 21.8288 25.166 21.6404C24.6954 21.452 24.4497 21.7068 24.2969 21.8455C23.8701 22.2522 23.0241 23.4509 22.7344 23.7205C22.4447 23.9901 22.0129 23.8536 21.8331 23.7517C21.1718 23.4863 19.3787 22.6887 17.9493 21.3032C16.1817 19.5896 16.0779 19.0001 15.7449 18.4753C15.4784 18.0554 15.674 17.7978 15.7715 17.6853C16.1524 17.2458 16.6783 16.5674 16.9141 16.2302C17.1499 15.893 16.9627 15.3812 16.8504 15.0623C16.3672 13.6911 15.9579 12.5433 15.625 11.8747Z" fill="white"/>
<defs>
<linearGradient id="paint0_linear_84_11795" x1="33.125" y1="8.75" x2="5" y2="35" gradientUnits="userSpaceOnUse">
<stop stop-color="#5BD066"/>
<stop offset="1" stop-color="#27B43E"/>
</linearGradient>
</defs>
</svg>
